<?xml version="1.0" encoding="UTF-8"?>
<svg id="_레이어_2" data-name="레이어 2" xmlns="http://www.w3.org/2000/svg" xmlns:xlink="http://www.w3.org/1999/xlink" viewBox="0 0 421.38 219.5">
  <defs>
    <style>
      .cls-1 {
        fill: url(#New_Gradient_Swatch_2-2);
      }

      .cls-2 {
        fill: url(#New_Gradient_Swatch_2-28);
      }

      .cls-3 {
        fill: #fff;
      }

      .cls-4 {
        fill: url(#New_Gradient_Swatch_2-14);
      }

      .cls-5 {
        fill: url(#New_Gradient_Swatch_2-22);
      }

      .cls-6 {
        fill: url(#New_Gradient_Swatch_2-8);
      }

      .cls-7 {
        fill: url(#New_Gradient_Swatch_2-4);
      }

      .cls-8 {
        fill: url(#New_Gradient_Swatch_2-17);
      }

      .cls-9 {
        fill: url(#New_Gradient_Swatch_2-13);
      }

      .cls-10 {
        fill: url(#New_Gradient_Swatch_2-11);
      }

      .cls-11 {
        fill: url(#New_Gradient_Swatch_2-18);
      }

      .cls-12 {
        fill: url(#New_Gradient_Swatch_2-20);
      }

      .cls-13 {
        fill: url(#New_Gradient_Swatch_2-31);
      }

      .cls-14 {
        fill: url(#New_Gradient_Swatch_2-25);
      }

      .cls-15 {
        fill: url(#New_Gradient_Swatch_2-24);
      }

      .cls-16 {
        fill: url(#New_Gradient_Swatch_2-15);
      }

      .cls-17 {
        fill: url(#New_Gradient_Swatch_2);
      }

      .cls-18 {
        fill: url(#New_Gradient_Swatch_2-29);
      }

      .cls-19 {
        fill: url(#New_Gradient_Swatch_2-12);
      }

      .cls-20 {
        fill: url(#New_Gradient_Swatch_2-19);
      }

      .cls-21 {
        fill: url(#New_Gradient_Swatch_2-23);
      }

      .cls-22 {
        fill: url(#New_Gradient_Swatch_2-7);
      }

      .cls-23 {
        fill: url(#New_Gradient_Swatch_2-21);
      }

      .cls-24 {
        fill: url(#New_Gradient_Swatch_2-3);
      }

      .cls-25 {
        fill: url(#New_Gradient_Swatch_2-5);
      }

      .cls-26 {
        fill: url(#New_Gradient_Swatch_2-27);
      }

      .cls-27 {
        fill: url(#New_Gradient_Swatch_2-26);
      }

      .cls-28 {
        fill: url(#New_Gradient_Swatch_2-16);
      }

      .cls-29 {
        fill: url(#New_Gradient_Swatch_2-30);
      }

      .cls-30 {
        fill: url(#New_Gradient_Swatch_2-10);
      }

      .cls-31 {
        fill: url(#New_Gradient_Swatch_2-6);
      }

      .cls-32 {
        fill: url(#New_Gradient_Swatch_2-9);
      }
    </style>
    <linearGradient id="New_Gradient_Swatch_2" data-name="New Gradient Swatch 2" x1="1.69" y1="27.87" x2="412.84" y2="27.87" gradientUnits="userSpaceOnUse">
      <stop offset="0" stop-color="#c2942c"/>
      <stop offset=".25" stop-color="#eace79"/>
      <stop offset=".33" stop-color="#e1c267"/>
      <stop offset=".49" stop-color="#cba43b"/>
      <stop offset=".6" stop-color="#bb8f1b"/>
      <stop offset=".86" stop-color="#e8cc76"/>
      <stop offset=".87" stop-color="#eace79"/>
      <stop offset="1" stop-color="#c2942c"/>
    </linearGradient>
    <linearGradient id="New_Gradient_Swatch_2-2" data-name="New Gradient Swatch 2" x1="1.69" y1="91.9" x2="412.84" y2="91.9" xlink:href="#New_Gradient_Swatch_2"/>
    <linearGradient id="New_Gradient_Swatch_2-3" data-name="New Gradient Swatch 2" x1="1.69" y1="49.53" x2="412.84" y2="49.53" xlink:href="#New_Gradient_Swatch_2"/>
    <linearGradient id="New_Gradient_Swatch_2-4" data-name="New Gradient Swatch 2" x1="1.69" y1="91.38" x2="412.84" y2="91.38" xlink:href="#New_Gradient_Swatch_2"/>
    <linearGradient id="New_Gradient_Swatch_2-5" data-name="New Gradient Swatch 2" x1="1.69" y1="56.8" x2="412.84" y2="56.8" xlink:href="#New_Gradient_Swatch_2"/>
    <linearGradient id="New_Gradient_Swatch_2-6" data-name="New Gradient Swatch 2" x1="1.69" y1="52.89" x2="412.84" y2="52.89" xlink:href="#New_Gradient_Swatch_2"/>
    <linearGradient id="New_Gradient_Swatch_2-7" data-name="New Gradient Swatch 2" x1="1.69" y1="18.11" x2="412.84" y2="18.11" xlink:href="#New_Gradient_Swatch_2"/>
    <linearGradient id="New_Gradient_Swatch_2-8" data-name="New Gradient Swatch 2" x1="1.69" y1="23.14" x2="412.84" y2="23.14" xlink:href="#New_Gradient_Swatch_2"/>
    <linearGradient id="New_Gradient_Swatch_2-9" data-name="New Gradient Swatch 2" x1="1.69" y1="49.18" x2="412.84" y2="49.18" xlink:href="#New_Gradient_Swatch_2"/>
    <linearGradient id="New_Gradient_Swatch_2-10" data-name="New Gradient Swatch 2" x1="1.69" y1="33.71" x2="412.84" y2="33.71" xlink:href="#New_Gradient_Swatch_2"/>
    <linearGradient id="New_Gradient_Swatch_2-11" data-name="New Gradient Swatch 2" x1="1.69" y1="67.01" x2="412.84" y2="67.01" xlink:href="#New_Gradient_Swatch_2"/>
    <linearGradient id="New_Gradient_Swatch_2-12" data-name="New Gradient Swatch 2" x1="1.69" y1="88.21" x2="412.84" y2="88.21" xlink:href="#New_Gradient_Swatch_2"/>
    <linearGradient id="New_Gradient_Swatch_2-13" data-name="New Gradient Swatch 2" x1="1.69" y1="51.49" x2="412.84" y2="51.49" xlink:href="#New_Gradient_Swatch_2"/>
    <linearGradient id="New_Gradient_Swatch_2-14" data-name="New Gradient Swatch 2" x1="1.69" y1="86.2" x2="412.84" y2="86.2" xlink:href="#New_Gradient_Swatch_2"/>
    <linearGradient id="New_Gradient_Swatch_2-15" data-name="New Gradient Swatch 2" x1="1.69" y1="55.87" x2="412.84" y2="55.87" xlink:href="#New_Gradient_Swatch_2"/>
    <linearGradient id="New_Gradient_Swatch_2-16" data-name="New Gradient Swatch 2" x1="1.69" y1="99.17" x2="412.84" y2="99.17" xlink:href="#New_Gradient_Swatch_2"/>
    <linearGradient id="New_Gradient_Swatch_2-17" data-name="New Gradient Swatch 2" x1="1.69" y1="62.13" x2="412.84" y2="62.13" xlink:href="#New_Gradient_Swatch_2"/>
    <linearGradient id="New_Gradient_Swatch_2-18" data-name="New Gradient Swatch 2" x1="1.69" y1="66.6" x2="412.84" y2="66.6" xlink:href="#New_Gradient_Swatch_2"/>
    <linearGradient id="New_Gradient_Swatch_2-19" data-name="New Gradient Swatch 2" x1="1.69" y1="51.87" x2="412.84" y2="51.87" xlink:href="#New_Gradient_Swatch_2"/>
    <linearGradient id="New_Gradient_Swatch_2-20" data-name="New Gradient Swatch 2" x1="1.69" y1="85.31" x2="412.84" y2="85.31" xlink:href="#New_Gradient_Swatch_2"/>
    <linearGradient id="New_Gradient_Swatch_2-21" data-name="New Gradient Swatch 2" x1="1.69" y1="50.48" x2="412.84" y2="50.48" xlink:href="#New_Gradient_Swatch_2"/>
    <linearGradient id="New_Gradient_Swatch_2-22" data-name="New Gradient Swatch 2" x1="162.96" y1="171.79" x2="258.38" y2="171.79" xlink:href="#New_Gradient_Swatch_2"/>
    <linearGradient id="New_Gradient_Swatch_2-23" data-name="New Gradient Swatch 2" x1="169.07" y1="171.79" x2="252.28" y2="171.79" xlink:href="#New_Gradient_Swatch_2"/>
    <linearGradient id="New_Gradient_Swatch_2-24" data-name="New Gradient Swatch 2" x1="169.07" y1="202.23" x2="252.28" y2="202.23" xlink:href="#New_Gradient_Swatch_2"/>
    <linearGradient id="New_Gradient_Swatch_2-25" data-name="New Gradient Swatch 2" x1="169.07" y1="206.13" x2="252.28" y2="206.13" xlink:href="#New_Gradient_Swatch_2"/>
    <linearGradient id="New_Gradient_Swatch_2-26" data-name="New Gradient Swatch 2" x1="169.07" y1="202.33" x2="252.28" y2="202.33" xlink:href="#New_Gradient_Swatch_2"/>
    <linearGradient id="New_Gradient_Swatch_2-27" data-name="New Gradient Swatch 2" x1="169.07" y1="171.79" x2="252.28" y2="171.79" xlink:href="#New_Gradient_Swatch_2"/>
    <linearGradient id="New_Gradient_Swatch_2-28" data-name="New Gradient Swatch 2" x1="169.07" y1="137.88" x2="252.28" y2="137.88" xlink:href="#New_Gradient_Swatch_2"/>
    <linearGradient id="New_Gradient_Swatch_2-29" data-name="New Gradient Swatch 2" x1="169.07" y1="137.55" x2="252.28" y2="137.55" xlink:href="#New_Gradient_Swatch_2"/>
    <linearGradient id="New_Gradient_Swatch_2-30" data-name="New Gradient Swatch 2" x1="169.07" y1="137.93" x2="252.28" y2="137.93" xlink:href="#New_Gradient_Swatch_2"/>
    <linearGradient id="New_Gradient_Swatch_2-31" data-name="New Gradient Swatch 2" x1="169.07" y1="171.79" x2="252.28" y2="171.79" xlink:href="#New_Gradient_Swatch_2"/>
  </defs>
  <g id="_레이어_1-2" data-name="레이어 1">
    <g>
      <g>
        <path class="cls-17" d="m21.59,49.85c.01-6.62.02-13.34.04-21.21,0-9.92.37-17.54,1.11-22.87-.53,0-1.04,0-1.57,0-.64,5.26-.96,12.45-.96,21.63-.02,8.41-.03,15.5-.04,22.57.29-.03.59-.05.87-.08.19-.02.36-.03.54-.05Z"/>
        <path class="cls-1" d="m20.14,70.08v.17c0,2,0,4.07-.01,6.23,0,4.46-.02,7.52-.02,12.38-.01,4.42.06,8.62.22,12.46.15,3.83.32,6.33.51,7.9.11.99.16,1.85.27,2.76-6.17,1.25-12.07,2.52-18.15,3.84-.06.54-.11,1.09-.17,1.58,6.66-1.44,13.03-2.82,19.74-4.18-.11-.91-.16-1.77-.27-2.76-.18-1.57-.35-4.07-.51-7.9-.15-3.84-.23-8.03-.22-12.46,0-4.86.02-7.92.02-12.38,0-2.16,0-4.23.01-6.23v-.59c10.82-1.34,16.72-2.03,26.78-3.11v-1.39c-10.95,1.17-16.87,1.86-28.19,3.27v.42Z"/>
        <path class="cls-24" d="m109.88,32.96c-.14-.65-.28-1.28-.43-1.95-.13-.57-.26-1.17-.4-1.76-2.67,11.3-4.3,18.48-6.88,31.37-.8,4.02-1.46,7.14-1.9,9.2.27-.03.53-.06.84-.09.27-.03.57-.06.88-.1.42-1.97.96-4.59,1.59-7.77,2.39-11.93,3.97-18.97,6.3-28.9Z"/>
        <path class="cls-7" d="m98.45,78.57c-.69,2.53-4.91,19.1-5.15,20.26-.14.67-.22.99-.36,1.62-6.04.77-10.77,1.37-16.52,2.21-.22.53-.44,1.05-.65,1.54,6.74-1,11.84-1.65,18.59-2.51.15-.63.22-.95.36-1.62.22-1.06,3.74-14.91,4.88-19.27-.38-.62-.72-1.28-1-2.01-.05-.07-.1-.15-.15-.22Z"/>
        <path class="cls-25" d="m70.32,5.61c-.53,0-1.05,0-1.58,0-.65,4.92-.99,11.57-1.02,19.91-.07,19.07-.13,38.13-.21,57.2-.02,4.1.05,7.95.2,11.46s.33,5.8.53,7.25c.08.92.12,1.36.2,2.21-6.26.97-12.22,1.79-18.41,2.83-.06.51-.13,1.03-.2,1.5,6.78-1.19,13.22-2.04,20.02-3.1-.08-.85-.12-1.29-.2-2.21-.2-1.45-.38-3.74-.53-7.25-.15-3.51-.22-7.36-.2-11.46.07-19.07.13-38.13.21-57.2.03-9.05.43-16.15,1.19-21.15Z"/>
        <path class="cls-31" d="m383.32,79.65c.78,1.2,1.61,2.27,2.47,3.27-3.84-6.19-5.79-14.81-5.76-25.98.03-11.8,2.1-20.27,6.13-25.5,4.03-5.24,9.07-7.56,15.11-7.33,2.62.1,5.24.75,7.87,2,1.13.53,2.12,1.17,3.03,1.86-1.22-1.22-2.69-2.27-4.44-3.1-2.63-1.25-5.26-1.9-7.87-2-6.04-.24-11.08,2.09-15.11,7.33-4.04,5.24-6.1,13.71-6.13,25.5-.02,9.53,1.4,17.19,4.2,23.08.17.29.33.59.5.87Z"/>
        <path class="cls-22" d="m417.45,5.47c-.46-.15-.96-.29-1.5-.42-.81,7.46-1.25,13.09-2.08,24.44.5.53.97,1.09,1.38,1.7.88-12.09,1.32-17.74,2.2-25.72Z"/>
        <path class="cls-6" d="m240.95,5.43c-.42,0-.79,0-1.18,0,.57,2.53,1.96,5.91,3.99,10.39,2.44,5.37,5.72,14.45,9.91,25.03.15-.39.31-.78.46-1.18-3.74-9.54-6.71-17.67-8.96-22.62-2.38-5.24-3.89-9-4.22-11.62Z"/>
        <path class="cls-32" d="m327.95,33.41c-.14-.66-.28-1.3-.43-1.98-.13-.58-.27-1.2-.4-1.8-2.58,11.23-3.9,17.96-6.61,30.38-.91,4.11-1.52,6.93-1.91,8.72.26,0,.52,0,.82,0,.26,0,.58,0,.86,0,.38-1.76.92-4.2,1.64-7.48,2.5-11.45,3.81-18.07,6.03-27.83Z"/>
        <path class="cls-30" d="m192.13,59.8c-7.96-19.38-20.8-50.84-22.39-54.35-.31,0-.58,0-.87,0,3.13,7.35,16.06,39.03,23.26,56.55,0-.74,0-1.47,0-2.19Z"/>
        <path class="cls-10" d="m237.77,86.89c-.17-3.25-.25-6.8-.25-10.52,0-12.86-.01-21.27-.02-34.55-.18-.45-.36-.88-.54-1.34-.28-.71-.58-1.43-.87-2.16,0,14.63.01,23.23.02,36.81,0,3.72.09,7.26.25,10.52.17,3.25.35,5.39.54,6.74.08.85.13,1.26.21,2.05-6.21-.1-9.6-.14-15.33-.17-.06.42-.11.84-.17,1.23,6.77.03,10.15.07,16.91.18-.09-.79-.13-1.2-.21-2.05-.19-1.36-.37-3.49-.54-6.74Z"/>
        <path class="cls-19" d="m317.22,78.1c-.19-.31-.36-.66-.53-.99-.76,2.74-3.32,12.78-3.64,14.08-.63,2.57-1.07,4.27-1.3,5.37-.14.62-.21.92-.35,1.51-6.03-.59-10.42-.88-16.13-1.28-.18.37-.36.75-.53,1.1,6.72.48,11.37.76,18.07,1.42.14-.58.21-.88.35-1.51.23-1.1.67-2.8,1.3-5.37.29-1.18,2.43-9.55,3.39-13.15-.12-.24-.21-.52-.33-.77-.09-.14-.21-.25-.3-.4Z"/>
        <path class="cls-9" d="m290.16,88.55c-.18-3.29-.28-6.87-.28-10.66-.03-17.6-.05-35.2-.08-52.8-.01-8.5.34-15.03,1.06-19.62-.6,0-1.11,0-1.58,0-.6,4.5-.9,10.61-.89,18.39.03,17.6.05,35.2.08,52.8,0,3.79.1,7.37.28,10.66.18,3.29.37,5.46.56,6.85.09.87.13,1.3.22,2.11-6.2-.38-9.59-.53-15.32-.76-.05.4-.11.8-.16,1.17,6.76.27,10.15.41,16.9.82-.09-.81-.13-1.23-.22-2.11-.19-1.39-.38-3.57-.56-6.85Z"/>
        <path class="cls-4" d="m326.55,86.15c-1.79-.2-3.34-.88-4.69-1.88,1.64,1.7,3.65,2.85,6.1,3.12,4.54.51,7.53.48,11.77.74-.08-.32-.19-.73-.3-1.17-4.86-.34-7.94-.25-12.88-.81Z"/>
        <path class="cls-16" d="m361.1,95.79c-1.15-3.7-2.39-9.57-3.4-13.78-4.51-19.13-16.35-71.98-17.51-76.47-.36,0-.74,0-1.11,0,2.18,9.16,12.95,57.2,17.21,75.24,1.01,4.21,2.25,10.08,3.4,13.78,1.15,3.7,2.07,6.18,2.75,7.78.38,1,.77,1.71,1.15,2.64-6.31-1.03-12.51-1.93-18.8-2.83.07.36.14.71.2,1.06,6.71.96,13.29,1.91,20.01,3.01-.38-.93-.77-1.64-1.15-2.64-.68-1.6-1.6-4.08-2.75-7.78Z"/>
        <path class="cls-28" d="m419.73,85.68c-.72,12.4-1.11,18.67-1.91,27.56-2.13.4-4.79,1.01-9.08.97-3.88-.03-7.13-.57-9.72-1.1-7.75-1.58-14.34-4.24-19.81-8.89,5.72,5.45,12.79,8.41,21.22,10.12,2.59.53,5.83,1.07,9.72,1.1,4.29.03,6.95-.58,9.08-.97.88-9.8,1.26-16.4,2.14-31.58-.44.97-.99,1.9-1.64,2.78Z"/>
        <path class="cls-8" d="m272.26,41.43c-6.47,16.07-10.19,25.45-16.95,39.3.33.7.65,1.37.99,2.1,6.51-13.28,10.2-22.36,15.96-36.67,0-.92,0-1.86,0-2.82,0-.62,0-1.27,0-1.91Z"/>
        <path class="cls-11" d="m165.4,87.45c-.16-3.27-.24-6.83-.24-10.58.02-13.81.03-22.92.04-37.13-.18-.45-.36-.87-.54-1.32-.28-.7-.58-1.41-.87-2.13-.01,15.51-.03,24.83-.04,39.35,0,3.75.07,7.31.24,10.58.16,3.27.33,5.41.52,6.77.11.85.17,1.27.28,2.06-6.23.2-9.63.33-15.38.58-.06.44-.12.89-.19,1.31,6.79-.3,10.19-.43,16.98-.65-.11-.79-.17-1.2-.28-2.06-.19-1.36-.36-3.51-.52-6.77Z"/>
        <path class="cls-20" d="m141.85,88.44c-1.15-3.21-2.23-6.73-3.24-10.47-4.65-17.5-17.27-68.16-18.41-72.52-.36,0-.73,0-1.09,0,2.28,8.96,13.72,54.8,18.1,71.28,1.01,3.74,2.09,7.26,3.24,10.47,1.15,3.21,2.07,5.32,2.75,6.66.38.85.57,1.26.95,2.04-6.36.33-11.41.59-17.63,1.08.1.46.2.92.28,1.32,6.76-.54,12.01-.81,18.76-1.16-.38-.79-.57-1.19-.95-2.04-.68-1.34-1.6-3.45-2.75-6.66Z"/>
        <path class="cls-12" d="m108.6,85.55c-2.32.21-4.48-.44-6.28-1.76.35.37.71.72,1.1,1.03,1.86,1.48,4.14,2.19,6.6,1.96,4.82-.45,7.76-.8,11.89-1.24-.11-.45-.22-.88-.34-1.35-4.73.5-7.72.87-12.96,1.36Z"/>
        <path class="cls-23" d="m208.31,23.38c0,23.63,0,47.26,0,70.89-2.6,0-3.91.02-6.51.04-4.28.03-7.98-1.25-11.09-3.73,3.38,3.31,7.56,5,12.5,4.96,2.61-.02,3.91-.03,6.51-.04,0-23.63,0-47.26,0-70.89,0-8.33.37-14.71,1.1-19.19-.56,0-1.07,0-1.59,0-.61,4.39-.92,10.35-.92,17.96Z"/>
      </g>
      <path class="cls-3" d="m418.6,79.1c-.88,15.18-1.26,21.77-2.14,31.58-2.13.4-4.79,1.01-9.08.97-3.88-.03-7.13-.57-9.72-1.1-11-2.24-19.71-6.56-26.1-15.85-6.39-9.28-9.58-23.59-9.57-42.84,0-19.24,3.22-31.73,9.65-39.88C378.06,3.84,386.79-.03,397.73,0c7.76.02,13.43.51,16.94,1.68-.88,7.98-1.32,13.63-2.2,25.72-1.44-2.15-3.48-3.82-6.11-5.07-2.63-1.25-5.26-1.9-7.87-2-6.04-.24-11.08,2.09-15.11,7.33-4.04,5.24-6.1,13.71-6.13,25.5-.03,11.48,2.02,20.29,6.07,26.5,4.05,6.22,9.13,9.71,15.14,10.74,3.16.54,6.95-.25,11.29-2.56,4.34-2.31,7.3-5.24,8.86-8.73Zm-276.77,12.21c.38.85.57,1.26.95,2.04-6.75.35-12,.62-18.76,1.16-.45-2.23-1.17-5.2-2.11-8.93-.12-.48-.23-.93-.36-1.44,0-.02-.02-.07-.02-.1-.14-.55-.32-1.83-.51-2.49-5.23.55-8.24.93-13.78,1.45-2.45.23-4.74-.48-6.6-1.96-.58-.46-1.12-.99-1.61-1.61-.78-.99-1.44-2.14-1.92-3.49-.64,2.33-4.93,19.16-5.17,20.34-.14.67-.22.99-.36,1.62-6.75.86-11.85,1.51-18.59,2.51,2.34-5.28,4.78-12.75,7.13-21.98,4.63-18.75,8.75-37.62,13.54-56.33,1.27-4.81,2.16-8.87,2.66-12.25.51-3.38.68-5.42.52-6.55-.11-.64-.17-.96-.28-1.56,6.94-.02,13.92-.07,20.85-.08,1.14,4.37,13.77,55.02,18.41,72.52,1.01,3.74,2.09,7.26,3.24,10.47,1.15,3.21,2.07,5.32,2.75,6.66Zm-23.95-23.32l-3.67-14.94c-1.55-7.18-2.61-12.24-3.8-17.67-.31-1.42-.63-2.86-.97-4.38-.42-1.87-.86-3.83-1.36-6-2.91,12.3-4.57,19.53-7.28,33.06-1.5,7.48-2.5,11.98-2.5,11.98,0,0,1.08-.12,2.8-.32.6-.07,1.28-.14,2.01-.22,4.08-.45,10-1.08,14.76-1.52ZM67.54,1.82c-6.78.02-13.24.02-20.02.04.11.89.16,1.35.27,2.31.18,1.52.35,3.91.5,7.55.15,3.64.21,7.61.2,11.81-.02,4.53-.03,6.92-.04,11.8l-.03,10.28c0,.76,0,1.15,0,1.92-10.48.84-16.33,1.35-25.69,2.21-.54.05-1.1.1-1.67.15-.72.07-1.47.14-2.24.21,0-.48,0-.72,0-1.19.01-7.57.03-15.06.04-24.06,0-9.92.37-17.54,1.11-22.87-6.78.03-13.19.05-19.97.08.11.97.17,1.47.28,2.52.19,1.66.37,4.25.55,8.18.17,3.93.26,8.17.26,12.6,0,21.12,0,42.23,0,63.35,0,10.15-.36,19.16-1.08,24.91,6.66-1.44,13.03-2.82,19.74-4.18-.11-.91-.16-1.77-.27-2.76-.18-1.57-.35-4.07-.51-7.9-.15-3.84-.23-8.03-.22-12.46,0-4.86.02-7.92.02-12.38,0-2.16,0-4.23.01-6.23v-.59c11.79-1.46,17.71-2.15,29.57-3.41v2.55s-.01,1.58-.01,1.58l-.02,4.37c-.02,4.08-.02,6.08-.04,9.9-.08,9.37-.47,16.93-1.23,22.11,6.78-1.19,13.22-2.04,20.02-3.1-.08-.85-.12-1.29-.2-2.21-.2-1.45-.38-3.74-.53-7.25-.15-3.51-.22-7.36-.2-11.46.07-19.07.13-38.13.21-57.2.03-9.05.43-16.15,1.19-21.15Zm219.85,82.94c-.18-3.29-.28-6.87-.28-10.66-.03-17.6-.05-35.2-.08-52.8-.01-8.5.34-15.03,1.06-19.62-2.16,0-3.23,0-5.39,0-7.55,0-14.36,3.54-17.93,11.47-.05.11-.1.23-.16.34-3.88,8.34-7.18,17.63-9.91,24.7-.19.5-.37.95-.56,1.43-.22.56-.44,1.14-.66,1.66-4.78-11.87-8.43-22.15-11.1-28.03-2.38-5.24-3.89-9-4.22-11.62-7.71,0-11.57,0-19.28,0,.69,4.16,1.03,10.34,1.03,19,0,17.28,0,34.56.01,51.83,0,8.21-.36,14.66-1.09,19.25,6.77.03,10.15.07,16.91.18-.09-.79-.13-1.2-.21-2.05-.19-1.36-.37-3.49-.54-6.74-.17-3.25-.25-6.8-.25-10.52,0-13.84-.01-22.5-.02-37.64.79,1.94,1.52,3.77,2.23,5.54.57,1.42,1.13,2.81,1.67,4.14,5.17,12.81,8.79,21.69,14.9,34.42,7.5-15.28,11.24-24.99,18.72-43.52,0,2.81,0,5.39.01,7.82,0,1.92,0,3.75,0,5.52.01,8.19.02,15.18.03,24.53.04,8.4-.31,14.91-1.03,19.5,6.76.27,10.15.41,16.9.82-.09-.81-.13-1.23-.22-2.11-.19-1.39-.38-3.57-.56-6.85ZM191.38,3.68c.19,1.35.37,3.47.53,6.7.16,3.23.24,6.76.24,10.47,0,12.82-.01,23.1-.02,36.12v2.65c0,1.04,0,2.05,0,3.12-7.28-17.64-23.37-57.13-25.16-61.1-8.15,0-12.23.01-20.38.02.11.77.16,1.17.28,1.99.19,1.37.37,3.52.54,6.77.17,3.25.25,6.8.25,10.56-.03,17.51-.05,35.01-.07,52.52-.01,8.41-.39,14.96-1.13,19.63,6.79-.3,10.19-.43,16.98-.65-.11-.79-.17-1.2-.28-2.06-.19-1.36-.36-3.51-.52-6.77-.16-3.27-.24-6.83-.24-10.58.02-14.77.03-24.14.04-40.15.78,1.92,1.52,3.73,2.23,5.49.57,1.4,1.12,2.76,1.66,4.07,5.03,12.3,8.9,21.34,14.91,33.72.74,1.44,1.44,2.84,2.11,4.18,3.78,7.57,9.58,11.41,17.07,11.35,2.61-.02,3.91-.03,6.51-.04,0-23.63,0-47.26,0-70.89,0-8.33.37-14.71,1.1-19.19-6.78,0-10.17,0-16.95,0,.11.79.17,1.2.28,2.05Zm169.7,96.1c.38,1,.77,1.71,1.15,2.64-6.72-1.09-13.29-2.05-20.01-3.01-.51-2.75-1.21-5.85-2.35-10.74-.15-.55-.91-3.47-1.1-4.22-5.3-.41-8.41-.27-13.59-.86-2.63-.3-4.77-1.56-6.47-3.47-.54-.61-1.05-1.28-1.5-2.02-.71-1.16-1.32-2.46-1.8-3.88-.62,2.17-3.4,13.06-3.74,14.41-.63,2.57-1.07,4.27-1.3,5.37-.14.62-.21.92-.35,1.51-6.7-.66-11.35-.94-18.07-1.42,2.3-4.5,4.6-10.93,6.89-19.34,4.67-17.61,8.69-35.38,13.26-53.01,1.24-4.67,2.11-8.66,2.6-12,.49-3.34.65-5.36.49-6.48-.12-.64-.17-.95-.29-1.55,6.93.01,15.57.02,22.5.04,1.16,4.49,13,57.35,17.51,76.47,1.01,4.21,2.25,10.08,3.4,13.78,1.15,3.7,2.07,6.18,2.75,7.78Zm-25.63-30.85l-3.09-14.38c-1.57-7.64-2.65-12.97-3.86-18.64-.31-1.45-.63-2.94-.97-4.48-.42-1.9-.87-3.9-1.36-6.1-2.86,12.31-4.16,19.07-7.01,32.12-1.82,8.22-2.46,11.28-2.46,11.28,0,0,1.07,0,2.73,0,.59,0,1.25,0,1.97,0,4.12,0,10.07.05,14.06.2Z"/>
    </g>
    <path class="cls-5" d="m210.67,219.5c-26.31,0-47.71-21.4-47.71-47.71s21.4-47.71,47.71-47.71,47.71,21.4,47.71,47.71-21.4,47.71-47.71,47.71Zm0-92.42c-24.65,0-44.71,20.06-44.71,44.71s20.06,44.71,44.71,44.71,44.71-20.06,44.71-44.71-20.06-44.71-44.71-44.71Z"/>
    <g>
      <path class="cls-21" d="m223.2,145.1v8.93c-.88.59-2.13,1.44-3.53,2.38-.87.58-1.79,1.2-2.7,1.82-.13.09-.25.17-.38.26-.24.16-.48.32-.71.48-.4.27-.79.53-1.17.79.44-.63.83-1.27,1.17-1.92,0,0,0,0,0,0,.09-.18.18-.35.27-.53.02-.03.03-.06.05-.1.08-.17.16-.34.24-.51.01-.03.03-.07.04-.1.31-.72.57-1.45.76-2.19.01-.06.03-.11.04-.17.04-.14.07-.29.1-.43.02-.08.03-.16.05-.24.03-.13.05-.27.08-.4.02-.09.03-.18.04-.27.02-.13.04-.25.05-.38.01-.11.02-.22.03-.33.02-.17.03-.33.04-.5,0-.15.02-.31.02-.46,0-.1,0-.19,0-.29,0-.13,0-.27,0-.4,0-.1,0-.19-.01-.29,0-.14-.01-.28-.02-.41,0-.09-.01-.18-.02-.27-.01-.15-.03-.3-.05-.46,0-.08-.02-.15-.03-.23-.03-.23-.07-.46-.11-.69-.04-.24-.1-.47-.15-.7-.02-.08-.04-.15-.06-.23-.04-.16-.08-.31-.13-.47-.02-.09-.05-.17-.08-.26-.05-.15-.09-.29-.14-.44-.03-.08-.05-.16-.08-.24-.07-.2-.15-.39-.22-.59-.05-.11-.09-.23-.14-.34-.04-.09-.08-.18-.12-.27-.05-.12-.11-.24-.17-.37-.03-.07-.07-.14-.1-.21-.06-.13-.13-.26-.19-.39,0,0,0,0,0,0-1.11-2.16-2.56-3.95-3.79-5.25-.35-.36-1.33-1.28-1.33-1.28l-1.33,1.28c-1.29,1.36-2.81,3.26-3.95,5.55h0s0,0,0,0c-.14.28-.27.57-.4.86-.02.05-.04.1-.07.15-.05.12-.1.24-.15.37-.04.09-.07.19-.11.28-.04.1-.08.21-.12.32-.07.19-.13.39-.19.59-.02.07-.04.15-.06.22-.05.16-.09.32-.13.48-.02.07-.04.14-.05.21-.05.23-.11.46-.15.69-.04.23-.08.45-.11.68-.01.07-.02.15-.03.22-.02.16-.04.31-.05.46,0,.08-.01.17-.02.25-.01.15-.02.3-.03.44,0,.08,0,.16,0,.24,0,.18,0,.36,0,.53,0,.07,0,.14,0,.21,0,.19.01.38.03.57,0,.1.02.19.03.29.01.12.02.25.04.37.01.11.03.21.04.32.02.11.03.22.05.34.02.11.04.22.06.33.02.11.04.21.07.32.05.22.1.44.16.66.02.09.04.17.07.26.04.13.08.26.12.39.03.08.05.17.08.25.04.13.09.26.14.39.03.08.06.16.09.24.05.14.1.27.16.41.02.06.05.12.08.18.46,1.08,1.06,2.15,1.79,3.21-.43-.29-.88-.59-1.33-.89-.92-.62-1.86-1.25-2.76-1.86-1.75-1.18-3.36-2.26-4.41-2.97v-8.93l-3.66,2.45v35.94c0,4.28,2.12,8.25,5.66,10.64l5.17,3.48,3.44,2.32v6.48h3.66v-6.48l3.29-2.22h0s5.32-3.58,5.32-3.58c.18-.12.36-.25.53-.38.02-.02.04-.03.07-.05.17-.13.33-.26.49-.39.03-.02.05-.05.08-.07.16-.13.31-.27.46-.41.02-.02.05-.04.07-.06.15-.15.3-.29.45-.45,0-.01.02-.02.03-.03.15-.16.3-.32.44-.49,0,0,0,0,.01-.01.14-.17.28-.34.41-.51.01-.02.03-.03.04-.05.13-.17.25-.34.37-.52.01-.02.02-.04.04-.06.12-.18.24-.36.35-.54,0,0,.01-.02.02-.03.35-.58.65-1.2.91-1.83,0,0,0-.01,0-.02.08-.21.16-.42.23-.64,0,0,0,0,0-.01.29-.88.5-1.79.6-2.72,0,0,0,0,0,0h0c.05-.46.08-.92.08-1.38v-35.94l-.08-.05-3.58-2.4Zm-14.28,50.42l-3.44-2.32-3.13-2.1c-.12-.08-.25-.17-.36-.26-.1-.08-.2-.16-.3-.24-1.87-1.52-3.06-3.71-3.32-6.1h0c-.02-.16-.03-.33-.04-.5,0-.17-.02-.34-.02-.51v-2.21s.04.03.06.04c.29.19.58.39.89.6.34.28.69.55,1.06.8l1.37.93h0s3.8,2.56,3.8,2.56l1.89,1.28c.98.93,1.55,2.22,1.55,3.6v4.46Zm0-11.5s-.09-.07-.14-.1l-.2-.13c-.93-.63-2-1.35-3.1-2.09-1.18-.8-2.4-1.61-3.53-2.38-.17-.11-.33-.22-.49-.33-1.73-1.51-2.84-3.61-3.09-5.89-.02-.17-.03-.34-.04-.51,0,0,0,0,0,0,0-.17-.01-.34-.01-.52v-2.21s.04.03.06.04c.29.19.58.39.89.6.34.28.69.55,1.06.8l1.37.93,1.23.83,4.46,3c.98.93,1.55,2.22,1.55,3.6v4.38Zm0-11.42s-.09-.07-.14-.1l-.2-.13c-.93-.63-2-1.35-3.1-2.09-1.27-.86-2.59-1.74-3.8-2.56-.08-.05-.15-.1-.23-.15-1.73-1.51-2.84-3.61-3.09-5.89-.02-.17-.03-.34-.04-.51,0,0,0,0,0,0,0-.17-.01-.34-.01-.52v-2.21s.04.03.06.04c1,.68,2.15,1.45,3.32,2.24.58.39,1.16.78,1.74,1.17.18.12.37.25.55.37.14.09.28.19.42.28.13.09.26.18.39.26.24.16.47.32.7.47.44.3.86.58,1.26.85,1.37.92,2.19,2.46,2.19,4.11v4.38Zm1.83-13.7c-5.29-6.46-3.3-12.24,0-16.4,3.3,4.16,5.29,9.94,0,16.4Zm12.45,24.59c0,.17,0,.35-.02.52,0,.11-.02.22-.03.32,0,.06,0,.11-.02.17-.02.14-.04.28-.06.42,0,.02,0,.03,0,.05-.03.15-.05.31-.09.46-.45,2.08-1.62,3.96-3.32,5.29-.17.13-.34.26-.52.38l-3.28,2.21-3.29,2.22v-4.46c0-1.38.57-2.67,1.55-3.6l1.74-1.17,3.59-2.42,1.73-1.17c.37-.25.72-.52,1.06-.8.25-.17.49-.33.73-.49h0c.07-.05.14-.1.21-.14v2.21Zm0-11.42c0,.17,0,.33-.01.5,0,.1-.02.21-.03.31,0,.06,0,.12-.02.19-.02.14-.04.29-.06.43,0,.02,0,.04,0,.06-.02.14-.05.29-.08.43-.41,1.94-1.44,3.7-2.95,5.01-.12.08-.25.17-.38.26-.08.06-.17.11-.26.17-1.76,1.18-3.71,2.5-5.4,3.64l-1.28.86s-.1.07-.14.1v-4.38c0-1.38.57-2.67,1.55-3.6l1.74-1.17,3.79-2.56,1.53-1.03c.37-.25.72-.52,1.06-.8.33-.22.64-.43.94-.64v2.21Zm0-11.42c0,.17,0,.33-.01.5,0,.11-.02.21-.03.32,0,.06,0,.12-.01.18-.04.33-.09.65-.16.97-.42,1.92-1.45,3.66-2.94,4.95-.45.3-.91.61-1.39.93-.92.62-1.87,1.26-2.79,1.88-.64.43-1.27.85-1.86,1.25l-1.28.86s-.1.07-.14.1v-4.38c0-1.65.82-3.19,2.19-4.11.35-.23.72-.48,1.1-.74,1.11-.75,2.35-1.58,3.58-2.41,1.32-.89,2.63-1.77,3.75-2.53v2.21Z"/>
      <path class="cls-15" d="m194.57,192.91v17.25c1.24.52,2.5.98,3.79,1.38v-14.93c-1.48-1.03-2.76-2.28-3.79-3.7Z"/>
      <path class="cls-14" d="m215.87,201.52v7.98s-.09.01-.14.02v.05h-.37c-.92.12-1.86.2-2.81.24-.19.01-.39.02-.58.02-.16,0-.33.01-.49.02-.27,0-.53,0-.8,0-.25,0-.5,0-.75,0-.15,0-.3,0-.45-.01-.22,0-.45-.01-.67-.03-.95-.04-1.88-.13-2.81-.24h-.22v-.03c-.1-.01-.2-.02-.29-.04v-8.09l-3.8-2.56v13.56c2.9.64,5.9.99,8.99.99s6.09-.35,8.99-.99v-13.45l-3.79,2.56Z"/>
      <path class="cls-27" d="m222.98,196.72v14.82c1.29-.4,2.56-.86,3.8-1.38v-17.04c-1.04,1.38-2.32,2.6-3.8,3.6Z"/>
      <path class="cls-26" d="m251.8,178.08h-14.59v15.78c.42-.51.82-1.02,1.21-1.55.96-1.3,1.82-2.66,2.59-4.09v-6.35h6.26c-1.02,3.74-2.59,7.25-4.63,10.44-.51.81-1.06,1.59-1.63,2.35-.37.49-.75.97-1.14,1.44-.83,1.01-1.73,1.97-2.66,2.88-1.05,1.03-2.16,2-3.32,2.9v-28.08h18.33c.03-.67.05-1.34.05-2.01,0-.6-.02-1.19-.05-1.78h-18.34v-28.08c1.16.9,2.27,1.87,3.32,2.9.93.92,1.82,1.88,2.66,2.88.39.47.77.96,1.14,1.44.57.77,1.11,1.55,1.63,2.35,2.04,3.19,3.61,6.7,4.63,10.44h-6.26v-6.35c-.77-1.42-1.63-2.79-2.59-4.09-.39-.53-.79-1.04-1.21-1.55v15.78h14.62c-1.95-13.36-10.25-24.66-21.73-30.74v73.58c11.42-6.04,19.69-17.24,21.7-30.51Z"/>
      <path class="cls-2" d="m224.95,142.48l1.83,1.23v-10.28c-1.24-.52-2.5-.98-3.8-1.38v9.12l1.97,1.32Z"/>
      <path class="cls-18" d="m205.48,138.2v-3.88c1.09-.15,2.2-.26,3.32-.31.22-.01.45-.02.67-.03.15,0,.3-.01.45-.01.25,0,.5,0,.75,0,.27,0,.53,0,.8,0,.17,0,.33.01.5.02.19,0,.39.01.58.02,1.12.05,2.23.16,3.32.31v3.69c1.4,1.73,2.83,3.93,3.79,6.49v-13.32c-1.53-.34-3.08-.6-4.66-.76-.16-.02-.32-.03-.48-.04-1.27-.12-2.55-.18-3.84-.18s-2.58.07-3.84.18c-.16.01-.32.02-.48.04-1.58.16-3.14.42-4.66.76v13.74c.93-2.65,2.37-4.91,3.8-6.71Z"/>
      <path class="cls-29" d="m196.55,142.48l1.81-1.21v-9.22c-1.29.4-2.56.86-3.79,1.38v10.39l1.98-1.33Z"/>
      <path class="cls-13" d="m191.25,195.61v-60.6c-11.49,6.08-19.79,17.38-21.73,30.74h14.62v-15.78c-.42.51-.82,1.02-1.21,1.55-.96,1.3-1.82,2.66-2.59,4.09v6.35h-6.26c1.02-3.74,2.59-7.25,4.63-10.44.52-.8,1.06-1.59,1.63-2.35.37-.49.75-.97,1.14-1.44.83-1.01,1.73-1.97,2.66-2.88,1.05-1.03,2.16-2,3.32-2.9v28.08h-18.34c-.02.59-.05,1.18-.05,1.78,0,.68.02,1.35.05,2.01h18.33v28.08c-1.16-.9-2.27-1.87-3.32-2.9-.93-.92-1.82-1.88-2.66-2.88-.39-.47-.77-.95-1.14-1.44-.57-.76-1.12-1.54-1.63-2.35-2.04-3.19-3.61-6.69-4.63-10.44h6.26v6.35c.77,1.42,1.63,2.79,2.59,4.09.39.52.79,1.04,1.21,1.55v-15.78h-14.59c2.01,13.26,10.28,24.46,21.7,30.51v-12.97Z"/>
    </g>
  </g>
</svg>